<svg version="1.2" xmlns="http://www.w3.org/2000/svg" viewBox="0 0 320 360" width="320" height="360">
	<title>active-svg</title>
	<g id="Journal_active">
		<g id="Layer">
			<path id="Layer" fill-rule="evenodd" fill="#0bb1e3" d="m7.3 70.8c0-34.5 28-62.5 62.5-62.5h62.5v124.1c0 8.7 10.1 13.6 16.9 8.1l35.1-28.1 35.1 28.1c6.8 5.5 16.9 0.6 16.9-8.1v-124h41.7c11.5 0 20.8 9.3 20.8 20.8v208.3c0 11.5-9.3 20.8-20.8 20.8v41.7c11.5 0 20.8 9.3 20.8 20.8 0 11.5-9.3 20.8-20.8 20.8h-208.3c-34.5 0-62.5-28-62.5-62.5v-208.3zm41.6 208.3c0 11.5 9.3 20.8 20.8 20.8h166.6v-41.7h-166.6c-11.5 0.1-20.8 9.4-20.8 20.9z"/>
		</g>
	</g>
	<g id="Beta_00000057829395227003588840000014802205692395600539_">
		<g id="Layer">
			<path id="Layer" fill="#250001" d="m67 337.7l26.7-0.1-17.7 17.7z"/>
			<path id="Layer" fill="#9a0100" d="m317 231.3l-69.2 71.8-51.3 52.2h-120.5l14.4-14.3 35.7-38.9 49.6-49.2 91.1-94.4 50.2-51.1z"/>
			<path id="Layer" fill="#560000" d="m295.4 102l21.6 5.4-21.6 22z"/>
			<path id="BETA" fill="#fff4ec" aria-label="BETA"  d="m181.4 288.1q-4.3-4.5-10-2.9-3.8 1-7.2 4.4l-14.6 14.6 1.5 1.5 4.1-4.1 30.5 32.4-4.2 4.1 1.5 1.6 14.7-14.7q6.7-6.7 5.2-14.7-0.7-4.1-3.6-7.1-4.4-4.8-10.5-3.7-2.8 0.6-5.5 2.4 2.3-5.4 0.1-10.5-0.8-2-2-3.3zm-21.7 9l4.7-4.7q5.4-5.3 11.1-0.6 0.9 0.6 1.6 1.4 3.7 3.9 2.8 8.5-0.5 2.7-2.5 4.7l-4.7 4.6zm14.6 15.5l5.6-5.6q4.7-4.7 10.6-1.7 2.2 1 4 3 4.3 4.5 4.1 9.6-0.2 3.4-2.6 5.8l-5.8 5.8zm39-51.3l1.1-1.1-10.3-10.3-23.9 23.8 1.5 1.6 4.1-4.2 30.4 32.4-4.1 4.2 1.4 1.5 23.9-23.9-9.7-10.9-1 1.1 1.9 3.5q3.4 6.3 1.8 9.8-0.5 1.1-1.4 2l-8.3 8.3-14.9-15.9 10.6-10.7-1.6-1.7-10.6 10.6-13.9-14.7 8.3-8.3q3.7-3.7 10.7 0.4 0.4 0.2 0.7 0.4zm34.6 13.6l14.2-14.2q-1.2-1.3-2.2-0.6-0.3 0.1-0.5 0.4l-3.6 3.5-30.4-32.4 3-3q4.2-4.2 11.1 0.2 0.2 0.3 0.3 0.3l4.6 3.2 1.4-1.5-11.2-11.4-25.6 25.6 10.7 11.9 1.5-1.5-2.9-4.7q-3.8-7.5-0.2-11.8l2.8-2.8 30.5 32.4-5 4.9zm42.8-42.6l11.2-11.2q-1.2-1.3-2.2-0.7-0.4 0.2-0.6 0.5l-1.8 1.7-43.7-22-1.9 1.9 20.2 45.5-3.3 3.3 1.5 1.5 9.2-9.2q-1.2-1.3-2.2-0.7-0.3 0.2-0.6 0.5l-2.5 2.5-6.9-15.3 10.8-10.8 14.7 7.6-3.4 3.3zm-33.2-23.1l18.3 9.5-9.7 9.7z"/>
		</g>
	</g>
</svg>